<?xml version="1.0" standalone="no"?>
<!DOCTYPE svg PUBLIC "-//W3C//DTD SVG 20010904//EN"
 "http://www.w3.org/TR/2001/REC-SVG-20010904/DTD/svg10.dtd">
<svg version="1.0" xmlns="http://www.w3.org/2000/svg"
 width="500.000000pt" height="500.000000pt" viewBox="0 0 500.000000 500.000000"
 preserveAspectRatio="xMidYMid meet">
<metadata>
Created by potrace 1.11, written by Peter Selinger 2001-2013
</metadata>
<g transform="translate(0.000000,500.000000) scale(0.100000,-0.100000)"
fill="#000000" stroke="none">
<path d="M2592 3489 c-9 -4 -26 -24 -37 -45 -11 -22 -30 -56 -42 -78 l-21 -39
-26 42 c-15 23 -36 59 -47 81 l-21 40 -192 0 -192 0 -22 -37 c-11 -21 -31 -57
-43 -80 -12 -24 -25 -43 -28 -43 -4 0 -27 35 -51 77 l-45 78 -190 0 -190 0
-63 -110 c-66 -113 -188 -327 -388 -681 l-114 -202 288 -491 287 -491 188 1
c214 2 195 -6 252 102 16 32 33 56 38 54 5 -1 19 -21 31 -42 11 -22 31 -56 44
-76 l22 -37 183 4 c100 1 185 3 189 3 3 1 27 37 53 82 l47 81 45 -79 c25 -43
47 -80 49 -82 2 -2 43 -3 91 -2 49 0 133 1 189 1 l101 1 43 75 c23 41 46 76
50 79 4 2 26 -29 49 -70 24 -41 50 -76 59 -79 14 -3 347 -1 375 3 4 1 7 5 7
10 0 5 38 76 85 157 47 81 85 149 85 150 0 2 18 33 40 69 22 36 40 67 40 69 0
3 213 380 229 406 6 8 24 41 41 73 l31 58 -30 47 c-56 89 -291 495 -291 504 0
4 -4 8 -9 8 -5 0 -11 6 -13 13 -2 7 -55 101 -118 209 l-115 197 -191 -2 -192
-2 -43 -77 c-24 -43 -46 -78 -49 -78 -3 0 -26 35 -52 77 l-46 78 -176 0 c-97
0 -185 -3 -194 -6z m923 -609 c92 -157 178 -304 191 -327 l24 -41 -76 -134
c-42 -73 -95 -167 -119 -208 -23 -41 -51 -92 -63 -112 -12 -21 -32 -55 -43
-75 -43 -77 -71 -123 -74 -123 -2 0 -24 36 -50 79 l-46 80 25 40 c15 22 26 42
26 45 0 2 52 95 116 206 l115 202 -140 238 c-77 132 -142 243 -143 248 -3 7
85 173 88 169 1 -1 77 -130 169 -287z m-1269 210 c11 -19 28 -48 38 -63 17
-25 17 -31 5 -55 -8 -15 -16 -29 -20 -32 -3 -3 -13 -21 -22 -41 -28 -60 -41
-65 -66 -24 -11 20 -21 38 -21 41 0 3 -11 21 -24 41 l-25 36 29 51 c66 119 63
116 76 98 6 -10 20 -33 30 -52z m579 -10 l46 -79 -35 -63 c-62 -111 -55 -110
-108 -17 l-47 83 20 27 c10 15 19 29 19 32 0 7 51 97 55 97 2 0 24 -36 50 -80z
m-1162 32 c7 -15 26 -48 41 -75 l27 -47 -124 -218 c-68 -119 -131 -231 -140
-248 l-15 -30 135 -230 c74 -126 138 -236 143 -244 6 -11 -6 -41 -39 -97 l-46
-82 -165 280 c-91 154 -177 301 -192 327 l-27 47 71 125 c39 69 79 141 90 160
164 289 212 369 219 365 4 -3 14 -18 22 -33z m1461 -539 l37 -62 -41 -73 c-23
-40 -45 -76 -49 -81 -4 -4 -28 28 -54 72 l-47 79 46 81 c52 92 42 93 108 -16z
m-1150 7 l46 -80 -41 -73 c-22 -39 -44 -75 -48 -79 -3 -4 -28 28 -54 72 l-48
79 47 81 c26 44 48 80 49 80 1 0 23 -36 49 -80z m573 -1 l44 -75 -48 -82 -47
-81 -47 81 -48 82 42 78 c23 43 46 76 51 75 5 -2 29 -37 53 -78z m-290 -479
c51 -86 54 -94 38 -116 -7 -11 -25 -41 -40 -69 -15 -27 -31 -54 -35 -58 -4 -5
-28 28 -54 72 l-47 81 47 81 c25 44 47 79 49 77 1 -2 20 -32 42 -68z m575 -7
l47 -78 -41 -75 c-23 -41 -44 -78 -47 -82 -3 -4 -27 29 -53 73 l-48 79 43 80
c23 44 44 80 48 80 3 0 26 -35 51 -77z"/>
</g>
</svg>
